<svg height="512" viewBox="0 0 512 512" width="512" xmlns="http://www.w3.org/2000/svg"><g id="Fertilizer"><g id="Filled"><path d="m472 464-16-24s8-24 8-128c0-36.878-24-160-24-160h-368s-24 123.122-24 160c0 104 8 128 8 128l-16 24c0 14.7 15.472 22.575 28.622 16 0 0 107.378 24 187.378 24s187.378-24 187.378-24c13.15 6.575 28.622-1.3 28.622-16z" fill="#66bb6a"/><path d="m464 312c0-31.2-17.177-124.124-22.467-152h-43.391c-18.561 155.193-125.982 283.07-269.927 331.326 37.424 6.216 86.285 12.674 127.785 12.674 80 0 187.378-24 187.378-24 13.15 6.575 28.622-1.3 28.622-16l-16-24s8-24 8-128z" fill="#49ad4d"/><rect fill="#e2dbd5" height="200" rx="100" width="272" x="120" y="240"/><path d="m392 340a99.617 99.617 0 0 0 -25.081-66.227 401.516 401.516 0 0 1 -136.937 166.227h62.018a100 100 0 0 0 100-100z" fill="#d9d1cc"/><path d="m255.259 360a40 40 0 0 0 -40 40h80a40 40 0 0 0 -40-40z" fill="#f09b73"/><path d="m256 8c-65.739 0-168 128-168 128h336s-102.261-128-168-128z" fill="#f09b73"/><g fill="#81c784"><rect height="32" rx="16" width="432" x="40" y="136"/><rect height="32" rx="16" width="432" x="40" y="168"/><path d="m255.99 320.75s-19.08 13.953-39.164 3.184-33.567-42.184-33.567-42.184 33.627-6.153 53.711 4.616 19.02 34.384 19.02 34.384z"/></g><path d="m255.269 320.75s19.081 13.953 39.165 3.184 33.566-42.184 33.566-42.184-33.627-6.153-53.711 4.616-19.02 34.384-19.02 34.384z" fill="#66bb6a"/><path d="m314.027 30.641a184.264 184.264 0 0 1 -74.32 105.359h184.293s-54.811-68.6-109.973-105.359z" fill="#e58b6c"/><path d="m271.675 363.526a80.3 80.3 0 0 1 -36.775 36.474h60.359a40 40 0 0 0 -23.584-36.474z" fill="#e58b6c"/><circle cx="224" cy="48" fill="#f2bba5" r="16"/><circle cx="248" cy="80" fill="#f2bba5" r="8"/><circle cx="80" cy="240" fill="#c8e6c9" r="16"/><circle cx="104" cy="272" fill="#c8e6c9" r="8"/></g><g id="Outline"><path d="m464.609 438.491c2.248-10.427 7.391-43.37 7.391-126.491 0-14.082-3.3-41.432-9.805-81.289a8 8 0 1 0 -15.791 2.578c6.278 38.458 9.6 65.676 9.6 78.711 0 99.945-7.539 125.3-7.589 125.47a8 8 0 0 0 .933 6.968l14.465 21.7c-1.364 7.3-9.843 10.211-16.853 6.708a8 8 0 0 0 -5.321-.652c-1.069.237-107.465 23.806-185.639 23.806s-184.57-23.569-185.635-23.808a7.994 7.994 0 0 0 -5.321.652c-7.029 3.512-15.494.569-16.853-6.708 29.488-47.76 7.809 17.678 7.809-154.136 0-13.035 3.318-40.253 9.6-78.711a8 8 0 1 0 -15.791-2.578c-6.509 39.857-9.809 67.207-9.809 81.289 0 83.121 5.143 116.064 7.391 126.491l-14.047 21.072c-3.37 5.052-.738 19.486 10.895 26.678a28.316 28.316 0 0 0 25.2 2.13c17.179 3.723 112.498 23.629 186.561 23.629s169.382-19.906 186.558-23.629a28.323 28.323 0 0 0 25.2-2.13c11.634-7.192 14.264-21.626 10.895-26.678z"/><path d="m456 128h-400c-20.8 0-31.6 24.683-17.874 40-13.718 15.309-2.94 40 17.874 40h400c20.8 0 31.6-24.683 17.874-40 13.718-15.309 2.94-40-17.874-40zm-272 48h272a8 8 0 0 1 0 16h-400a8 8 0 0 1 0-16h64a8 8 0 0 0 0-16h-64a8 8 0 0 1 0-16h400a8 8 0 0 1 0 16h-272a8 8 0 0 0 0 16z"/><path d="m320 407.657a8 8 0 0 0 0-16h-17.482a48.107 48.107 0 0 0 -39.018-38.934v-19.153c11.779 3.893 23.73 3.3 34.71-2.586 22.3-11.955 36.542-44.691 37.138-46.079a8 8 0 0 0 -5.912-11.024c-1.485-.273-36.636-6.519-58.931 5.434a41.62 41.62 0 0 0 -14.879 13.278 41.615 41.615 0 0 0 -14.88-13.278c-22.293-11.953-57.444-5.707-58.931-5.434a8 8 0 0 0 -5.911 11.024c.595 1.388 14.842 34.124 37.137 46.079 11.018 5.908 22.9 6.426 34.459 2.669v18.982a48.108 48.108 0 0 0 -39.5 39.022h-16a8 8 0 1 0 0 16zm-4.3-119.309c-12.639 22.5-28.986 39.375-51.862 28.151-.039-.472-.087-.968-.146-1.5 3.908-24.705 27.059-28.518 52.008-26.651zm-68.274 28.152c-22.9 11.225-39.208-5.625-51.862-28.153 24.956-1.865 48.1 1.948 52.009 26.655-.06.529-.108 1.027-.147 1.498zm-23.056 75.157c8.5-31.424 53.275-31.452 61.779 0z"/><path d="m292 448a108 108 0 0 0 0-216h-72a108 108 0 0 0 0 216zm-164-108a92.1 92.1 0 0 1 92-92h72a92 92 0 0 1 0 184h-72a92.1 92.1 0 0 1 -92-92z"/><path d="m121.728 109.427c55.623-60.247 103.308-93.427 134.272-93.427s78.649 33.18 134.272 93.427a8 8 0 0 0 11.756-10.854c-41.517-44.973-100.552-98.573-146.028-98.573s-104.511 53.6-146.028 98.573a8 8 0 0 0 11.756 10.854z"/><circle cx="152" cy="168" r="8"/><circle cx="216" cy="72" r="8"/><circle cx="240" cy="40" r="8"/><circle cx="256" cy="64" r="8"/><circle cx="280" cy="48" r="8"/><circle cx="296" cy="80" r="8"/><circle cx="328" cy="104" r="8"/><circle cx="272" cy="104" r="8"/><circle cx="232" cy="104" r="8"/><circle cx="184" cy="104" r="8"/></g></g></svg>