<?xml version="1.0"?>
<svg xmlns="http://www.w3.org/2000/svg" xmlns:xlink="http://www.w3.org/1999/xlink" version="1.1" id="Capa_1" x="0px" y="0px" viewBox="0 0 512 512" style="enable-background:new 0 0 512 512;" xml:space="preserve" width="512px" height="512px" class=""><g><path style="fill:#4CAF50" d="M436.7,247.316c0,0,38.936,101.475,15.849,208.062c0,0,26.656,25.435,10.257,42.745  c-16.399,17.31-42.819-7.288-42.819-7.288S363.502,504.5,256,504.5S92.013,490.834,92.013,490.834s-26.42,24.598-42.819,7.288  s10.257-42.745,10.257-42.745C36.363,348.791,75.299,247.316,75.299,247.316H436.7z" data-original="#2FC8B4" class="" data-old_color="#2FC8B4"/><path style="fill:#B24D40;" d="M95.394,176.013L95.394,176.013c-32.487-18.381-16.335-68.09,20.751-63.865l0,0l0,0  c-22.202-30.005,12.772-68.847,44.933-49.903l0,0l0,0c-8.078-36.441,39.67-57.7,61.346-27.313l0,0l0,0  c7.442-36.576,59.71-36.576,67.152,0l0,0l0,0C311.251,4.545,359,25.804,350.922,62.245l0,0l0,0  c32.161-18.944,67.135,19.899,44.933,49.903l0,0l0,0c37.086-4.225,53.237,45.484,20.751,63.865l0,0H95.394z" data-original="#B24D40" class=""/><path style="fill:#25AD2B" d="M59.451,455.377c0,0-26.656,25.435-10.257,42.745s42.819-7.288,42.819-7.288  s6.737,1.629,19.979,3.762c-51.132-111.612,0.177-232.298,0.177-232.298l-6.374-14.982H75.299  C75.299,247.316,36.363,348.791,59.451,455.377z" data-original="#00AE95" class="active-path" data-old_color="#00AE95"/><path style="fill:#DF8B78;" d="M256,136.114c131.223,0,196.549,6.171,196.549,56.91v20.954c0,50.739-65.326,56.91-196.549,56.91  s-196.549-6.171-196.549-56.91v-20.954C59.451,142.285,124.776,136.114,256,136.114z" data-original="#DF8B78" class=""/><path style="fill:#C86D5C;" d="M102.451,219.979v-32.957c0-17.061,2.996-30.909,8.973-42.153  c-34.673,7.739-51.974,22.045-51.974,48.155v20.954c0,26.109,17.301,40.416,51.974,48.155  C105.447,250.889,102.451,237.041,102.451,219.979z" data-original="#C86D5C" class=""/><path style="fill:#F0F0F0;" d="M365.493,313.203H146.506c-16.008,0-28.984,12.977-28.984,28.984v84.058  c0,16.008,12.977,28.984,28.984,28.984h218.988c16.008,0,28.984-12.977,28.984-28.984v-84.058  C394.478,326.179,381.501,313.203,365.493,313.203z" data-original="#F0F0F0"/><path style="fill:#4CAF50" d="M204.124,429.915c101.875,1.097,88.153-55.512,108.12-86.967c0,0-43.242-18.141-80.504,7.632  C194.477,376.354,204.124,429.915,204.124,429.915z" data-original="#2FC8B4" class="" data-old_color="#2FC8B4"/><path d="M176.333,218.1c4.142,0,7.5-3.358,7.5-7.5v-14.418c0-4.142-3.358-7.5-7.5-7.5s-7.5,3.358-7.5,7.5V210.6  C168.833,214.742,172.19,218.1,176.333,218.1z" data-original="#000000" class="" style="fill:#000000"/><path d="M335.667,218.1c4.142,0,7.5-3.358,7.5-7.5v-14.418c0-4.142-3.358-7.5-7.5-7.5s-7.5,3.358-7.5,7.5V210.6  C328.167,214.742,331.525,218.1,335.667,218.1z" data-original="#000000" class="" style="fill:#000000"/><path d="M256,225.796c9.828,0,19.053-4.105,25.31-11.264c2.726-3.119,2.408-7.856-0.711-10.583  c-3.118-2.726-7.856-2.408-10.583,0.711c-3.408,3.899-8.517,6.135-14.016,6.135c-5.499,0-10.607-2.236-14.016-6.135  c-2.727-3.119-7.465-3.438-10.583-0.711c-3.119,2.726-3.438,7.464-0.711,10.583C236.947,221.69,246.172,225.796,256,225.796z" data-original="#000000" class="" style="fill:#000000"/><path d="M146.506,305.703c-20.117,0-36.484,16.367-36.484,36.484v84.058c0,20.118,16.367,36.484,36.484,36.484h218.988  c20.117,0,36.484-16.367,36.484-36.484v-84.058c0-20.118-16.367-36.484-36.484-36.484H146.506z M386.978,342.187v84.058  c0,11.847-9.638,21.484-21.484,21.484H146.506c-11.846,0-21.484-9.638-21.484-21.484v-84.058c0-11.847,9.638-21.484,21.484-21.484  h218.988C377.34,320.703,386.978,330.34,386.978,342.187z" data-original="#000000" class="" style="fill:#000000"/><path d="M315.145,336.032c-0.661-0.277-16.416-6.785-37.41-6.785c-18.803,0-35.714,5.102-50.263,15.165  c-17.017,11.771-27.718,30.615-30.947,54.496c-2.377,17.581,0.109,31.742,0.216,32.337c0.618,3.437,3.805,6.134,7.301,6.17  c0.997,0.01,1.993,0.016,2.989,0.016c80.518,0,92.343-36.956,101.834-66.647c2.821-8.826,5.486-17.163,9.709-23.816  c1.184-1.865,1.485-4.157,0.824-6.264C318.738,338.595,317.182,336.886,315.145,336.032z M294.579,366.216  c-4.399,13.761-8.947,27.991-20.547,38.341c-12.285,10.961-31.592,16.779-58.838,17.726c6.333-13.984,20.82-39.147,46.599-50.147  c3.81-1.626,5.581-6.032,3.955-9.842s-6.03-5.581-9.842-3.955c-20.306,8.664-34.436,24.15-43.765,38.304  c2.6-14.043,9.033-29.636,23.865-39.895c11.994-8.296,26.033-12.502,41.729-12.502c9.586,0,17.964,1.608,23.681,3.104  C298.664,353.436,296.598,359.898,294.579,366.216z" data-original="#000000" class="" style="fill:#000000"/><path d="M466.806,404.627c0.226-4.136-2.944-7.672-7.08-7.897c-4.125-0.23-7.671,2.944-7.897,7.08  c-0.943,17.272-3.167,34.088-6.609,49.98c-0.551,2.543,0.266,5.201,2.143,7.004c0.212,0.204,21.056,20.5,10,32.17  c-11.077,11.693-32.063-7.435-32.264-7.619c-1.841-1.714-4.423-2.39-6.87-1.801C398.903,488.198,340.13,497,256,497  s-142.903-8.802-162.223-13.455c-2.438-0.589-5.02,0.088-6.864,1.791c-0.21,0.194-21.197,19.323-32.274,7.629  c-11.057-11.67,9.788-31.967,9.99-32.161c1.89-1.804,2.706-4.461,2.152-7.014c-18.465-85.246,3.984-168.239,12.504-194.926  c5.984,3.238,12.391,5.641,18.612,7.508c50.136,15.051,106.347,12.016,158.103,12.016c38.484,0,77.826,0.804,116.082-4.132  c14.152-1.562,28.367-3.722,42.015-7.883c6.225-1.868,12.636-4.272,18.624-7.513c5.858,18.292,18.286,63.02,19.534,116.56  c0.096,4.141,3.553,7.419,7.673,7.323c4.141-0.097,7.42-3.532,7.323-7.673c-1.423-60.994-16.412-109.835-21.723-125.342  c8.61-8.172,14.521-19.56,14.521-35.751v-20.954c0-18.878-8.035-31.224-19.017-39.556c1.964-12.009-1.403-24.753-9.35-34.381  c-6.129-7.425-14.372-12.224-23.613-13.958c5.528-15.561,0.385-31.192-8.721-41.306c-9.098-10.105-24.086-16.851-40.127-13.001  c-1.296-16.441-12.343-28.615-24.764-34.145c-12.421-5.531-28.859-5.598-41.946,4.444C284.64,6.627,269.596,0,256,0  c-13.597,0-28.641,6.627-36.512,21.12c-13.085-10.038-29.524-9.973-41.945-4.444c-12.421,5.53-23.469,17.704-24.765,34.146  c-16.036-3.85-31.029,2.896-40.126,13c-9.106,10.114-14.249,25.745-8.721,41.306c-9.24,1.735-17.484,6.535-23.613,13.958  c-7.961,9.644-11.327,22.417-9.341,34.444c-11.848,8.979-19.026,21.585-19.026,39.493v20.954c0,16.194,5.912,27.583,14.525,35.755  c-3.2,9.374-9.955,31.022-15.143,60.337c-6.216,35.122-11.16,88.09-0.041,142.941c-10.713,11.767-23.102,33.847-7.542,50.27  c15.591,16.456,38.169,5.529,50.318-4.309C108.529,502.009,163.153,512,256,512s147.471-9.99,161.933-13.028  c7.622,6.172,19.346,12.773,30.876,12.772c6.849,0,13.632-2.331,19.442-8.463c15.559-16.423,3.17-38.503-7.542-50.27  C463.848,437.523,465.897,421.268,466.806,404.627z M66.951,193.024c0-11.627,3.616-21.645,15.896-29.53  c3.445-2.212,7.203-4.022,10.999-5.539c11.838-4.731,28.522-8.359,51.758-10.707c3.688-0.37,7.518-0.71,11.514-1.016  c4.05-0.31,7.215-4.009,6.906-8.054c-0.316-4.13-3.925-7.226-8.05-6.906c-26.192,2.003-51.436,5.465-70.495,13.888  c0.345-5.941,2.566-11.87,6.407-16.524c5.694-6.898,14.007-10.108,23.409-9.036c6.401,0.729,10.709-6.739,6.88-11.912  c-9.6-12.974-5.125-26.332,1.625-33.828c6.75-7.496,19.565-13.343,33.473-5.153c5.564,3.277,12.521-1.805,11.129-8.085  c-3.493-15.757,6.028-26.139,15.243-30.242c9.214-4.104,23.301-4.232,32.674,8.907c3.734,5.234,12.176,3.43,13.456-2.859  C232.991,20.612,245.913,15,256,15s23.007,5.611,26.226,21.426c1.285,6.315,9.721,8.096,13.456,2.862  c9.373-13.14,23.458-13.01,32.674-8.908c9.215,4.103,18.736,14.484,15.245,30.241c-1.385,6.248,5.603,11.34,11.128,8.088  c13.906-8.192,26.723-2.344,33.472,5.152c6.75,7.496,11.226,20.854,1.625,33.828c-3.7,5,0.355,12.667,6.878,11.913  c9.398-1.072,17.716,2.138,23.41,9.036c3.835,4.645,6.052,10.563,6.403,16.493c-7.116-3.106-14.516-5.25-21.278-6.879  c-48.688-11.729-99.548-9.636-149.24-9.636c-29.128,0-51.379,0.322-70.025,1.015c-4.139,0.153-7.37,3.634-7.216,7.773  c0.151,4.091,3.679,7.383,7.773,7.219c18.489-0.687,40.563-1.007,69.468-1.007c47.166,0,96.806-1.728,143.149,8.644  c10.222,2.288,20.485,5.306,29.426,10.917c0.279,0.175,0.568,0.325,0.863,0.46c9.233,6.172,15.612,15.244,15.612,29.389  c0,0,0,20.928,0,20.954c0,28.531-29.701,37.867-52.892,42.227C360.601,262.125,316,263.388,256,263.388  s-104.601-1.263-136.157-7.184c-13.992-2.625-28.434-6.068-39.979-14.84c-8.606-6.538-12.913-16.638-12.913-27.386V193.024z" data-original="#000000" class="" style="fill:#000000"/></g> </svg>
