<?xml version="1.0" encoding="iso-8859-1"?>
<!-- Generator: Adobe Illustrator 19.0.0, SVG Export Plug-In . SVG Version: 6.00 Build 0)  -->
<svg version="1.1" id="Capa_1" xmlns="http://www.w3.org/2000/svg" xmlns:xlink="http://www.w3.org/1999/xlink" x="0px" y="0px"
	 viewBox="0 0 480 480" style="enable-background:new 0 0 480 480;" xml:space="preserve">
<g>
	<path style="fill:#6A9923;" d="M256,288h-16l0,0c0-44.183,35.817-80,80-80h16l0,0C336,252.183,300.183,288,256,288z"/>
	<path style="fill:#6A9923;" d="M256,176h-16l0,0c0-44.183,35.817-80,80-80h16l0,0C336,140.183,300.183,176,256,176z"/>
	<path style="fill:#6A9923;" d="M240,64h16c30.928,0,56-25.072,56-56h-16C265.072,8,240,33.072,240,64z"/>
</g>
<g>
	<path style="fill:#88B337;" d="M240,368c-4.418,0-8-3.582-8-8V56c0-4.418,3.582-8,8-8s8,3.582,8,8v304
		C248,364.418,244.418,368,240,368z"/>
	<path style="fill:#88B337;" d="M144,208h16c44.183,0,80,35.817,80,80l0,0h-16C179.817,288,144,252.183,144,208L144,208z"/>
	<path style="fill:#88B337;" d="M144,96h16c44.183,0,80,35.817,80,80l0,0h-16C179.817,176,144,140.183,144,96L144,96z"/>
	<path style="fill:#88B337;" d="M240,64h-16c-30.928,0-56-25.072-56-56h16C214.928,8,240,33.072,240,64z"/>
</g>
<path style="fill:#F2BB80;" d="M280,405.8V472h112v-32l80-144V128c0-13.255-10.745-24-24-24s-24,10.745-24,24v117.952
	c-9.16-8.393-23.39-7.772-31.784,1.389c-0.038,0.041-0.075,0.082-0.112,0.123L336,309.8l-0.432,0.248
	C301.206,329.682,280,366.224,280,405.8z"/>
<path style="fill:#E8A16D;" d="M360.592,357.8c2.254,0.001,4.403-0.949,5.92-2.616l65.544-72.096
	c10.985-12.057,10.544-30.621-1-42.144c-3.178-3.07-8.242-2.982-11.312,0.196c-2.995,3.1-2.995,8.016,0,11.116
	c5.495,5.49,5.703,14.33,0.472,20.072l-65.536,72.088c-2.974,3.268-2.735,8.328,0.533,11.301
	C356.685,357.056,358.602,357.799,360.592,357.8L360.592,357.8z"/>
<path d="M256,184c48.577-0.057,87.943-39.423,88-88c0-4.418-3.582-8-8-8h-16c-28.698,0.031-55.575,14.067-72,37.6V72h8
	c35.33-0.04,63.96-28.67,64-64c0-4.418-3.582-8-8-8h-16c-23.298,0.014-44.747,12.688-56,33.088C228.747,12.688,207.298,0.014,184,0
	h-16c-4.418,0-8,3.582-8,8c0.04,35.33,28.67,63.96,64,64h8v53.6c-16.425-23.533-43.302-37.569-72-37.6h-16c-4.418,0-8,3.582-8,8
	c0.057,48.577,39.423,87.943,88,88h8v53.6c-16.425-23.533-43.302-37.569-72-37.6h-16c-4.418,0-8,3.582-8,8
	c0.057,48.577,39.423,87.943,88,88h8v72h16v-72h8c48.577-0.057,87.943-39.423,88-88c0-4.418-3.582-8-8-8h-16
	c-28.698,0.031-55.575,14.067-72,37.6V184H256z M320,104h7.56c-4.12,36.421-34.907,63.956-71.56,64h-7.56
	C252.56,131.579,283.347,104.044,320,104z M296,16h7.336C299.401,39.08,279.413,55.971,256,56h-7.336
	C252.599,32.92,272.587,16.029,296,16z M224,56c-23.413-0.029-43.401-16.92-47.336-40H184c23.413,0.029,43.401,16.92,47.336,40H224z
	 M224,168c-36.653-0.044-67.44-27.579-71.56-64H160c36.653,0.044,67.44,27.579,71.56,64H224z M224,280
	c-36.653-0.044-67.44-27.579-71.56-64H160c36.653,0.044,67.44,27.579,71.56,64H224z M320,216h7.56
	c-4.12,36.421-34.907,63.956-71.56,64h-7.56C252.56,243.579,283.347,216.044,320,216z"/>
<path d="M448,96c-17.673,0-32,14.327-32,32v104.944c-2.593-0.656-5.261-0.973-7.936-0.944c-8.386,0.187-16.318,3.846-21.904,10.104
	l-55.248,61.384c-34.631,20.175-56.721,56.483-58.72,96.512H272v72c0,4.418,3.582,8,8,8h112c4.418,0,8-3.582,8-8v-29.944
	l70.056-126.976c6.507-11.065,9.94-23.667,9.944-36.504V128C480,110.327,465.673,96,448,96L448,96z M464,278.576
	c-0.012,10.057-2.719,19.928-7.84,28.584l-71.2,128.976c-0.641,1.187-0.971,2.516-0.96,3.864v24h-96v-58.2
	c0.098-36.838,19.923-70.801,51.952-89c0.745-0.423,1.418-0.963,1.992-1.6l56.104-62.4c5.388-5.965,14.591-6.432,20.556-1.044
	s6.432,14.591,1.044,20.556L348.168,352L360,362.768l71.464-79.68c10.316-11.362,10.546-28.631,0.536-40.264V128
	c0-8.837,7.163-16,16-16s16,7.163,16,16L464,278.576z"/>
<path style="fill:#F2BB80;" d="M144.432,310.048L144,309.8l-56.104-62.336c-8.325-9.222-22.55-9.949-31.773-1.624
	c-0.041,0.037-0.082,0.075-0.123,0.112V128c0-13.255-10.745-24-24-24S8,114.745,8,128v168l80,144v32h112v-66.2
	C200,366.224,178.794,329.682,144.432,310.048L144.432,310.048z"/>
<path style="fill:#E8A16D;" d="M119.408,357.8c-2.254,0.001-4.403-0.949-5.92-2.616l-65.544-72.096
	c-10.985-12.057-10.544-30.621,1-42.144c3.178-3.07,8.242-2.982,11.312,0.196c2.995,3.1,2.995,8.016,0,11.116
	c-5.495,5.49-5.703,14.33-0.472,20.072l65.536,72.088c2.974,3.268,2.735,8.328-0.533,11.301
	C123.315,357.056,121.398,357.799,119.408,357.8L119.408,357.8z"/>
<path d="M0,128v150.576c0.004,12.837,3.437,25.439,9.944,36.504L80,442.056V472c0,4.418,3.582,8,8,8h112c4.418,0,8-3.582,8-8v-72
	h-0.192c-2.001-40.026-24.092-76.331-58.72-96.504L93.84,242.112c-5.584-6.261-13.517-9.923-21.904-10.112
	c-2.675-0.032-5.342,0.283-7.936,0.936V128c0-17.673-14.327-32-32-32S0,110.327,0,128L0,128z M16,128c0-8.837,7.163-16,16-16
	s16,7.163,16,16v114.824c-10.01,11.633-9.78,28.902,0.536,40.264L120,362.768L131.832,352l-71.456-79.672
	c-5.224-5.746-5.013-14.582,0.48-20.072c5.674-5.679,14.878-5.683,20.557-0.008c0.185,0.185,0.364,0.374,0.539,0.568l56.104,62.336
	c0.574,0.637,1.247,1.177,1.992,1.6C172.092,334.96,191.919,368.945,192,405.8V464H96v-24c-0.002-1.352-0.346-2.681-1-3.864
	L23.84,307.2c-5.128-8.668-7.835-18.553-7.84-28.624L16,128z"/>
<g>
</g>
<g>
</g>
<g>
</g>
<g>
</g>
<g>
</g>
<g>
</g>
<g>
</g>
<g>
</g>
<g>
</g>
<g>
</g>
<g>
</g>
<g>
</g>
<g>
</g>
<g>
</g>
<g>
</g>
</svg>
