<?xml version="1.0" encoding="iso-8859-1"?>
<!-- Generator: Adobe Illustrator 19.0.0, SVG Export Plug-In . SVG Version: 6.00 Build 0)  -->
<svg version="1.1" id="Capa_1" xmlns="http://www.w3.org/2000/svg" xmlns:xlink="http://www.w3.org/1999/xlink" x="0px" y="0px"
	 viewBox="0 0 512 512" style="enable-background:new 0 0 512 512;" xml:space="preserve">
<circle style="fill:#60C344;" cx="256" cy="256" r="256"/>
<path style="fill:#47AB4B;" d="M512,256c0-13.679-1.085-27.104-3.151-40.202L314.708,21.657l-15.249,13.888l76.338,76.338
	l-9.848,14.573l-70.465-70.465L281.26,70.958l72.917,72.917l-3.727,5.515L243.163,42.102l-8.211,4.226L208.554,19.93l-14.438,14.484
	l56.713,56.713l-2.859,4.37l67.912,67.912l-2.282,3.134L212.667,65.609l-13.288,15.775L301.355,183.36L142,402.234l109.711,109.711
	C253.14,511.969,254.566,512,256,512C397.385,512,512,397.385,512,256z"/>
<rect x="307.77" y="104.8" style="fill:#C0C0C0;" width="72.815" height="297.44"/>
<rect x="142" y="104.8" style="fill:#FFFFFF;" width="211.94" height="297.44"/>
<rect x="255.67" y="104.8" style="fill:#E0E0E0;" width="98.27" height="297.44"/>
<rect x="142" y="134.3" style="fill:#FFDC00;" width="211.94" height="34.7"/>
<rect x="255.67" y="134.3" style="fill:#FFC000;" width="98.27" height="34.7"/>
<path style="fill:#47AB4B;" d="M260.739,355.106V299.34l7.163,0.009c25.741,0.032,46.634-20.807,46.669-46.548l0.014-10.378
	l-10.378-0.013c-19.761-0.025-41.742,12.253-48.544,29.604c-6.803-17.352-28.783-29.629-48.544-29.604l-10.378,0.013l0.014,10.378
	c0.035,25.741,20.928,46.58,46.669,46.548l7.163-0.009v55.766L260.739,355.106L260.739,355.106z"/>
<path style="fill:#2B9153;" d="M255.661,355.106h5.077v-55.765l7.163,0.009c25.74,0.032,46.635-20.807,46.669-46.548l0.014-10.378
	l-10.378-0.013c-19.761-0.025-41.741,12.252-48.544,29.604v83.091H255.661z"/>
<rect x="142" y="350.97" style="fill:#FFDC00;" width="211.94" height="34.7"/>
<rect x="255.67" y="350.97" style="fill:#FFC000;" width="98.27" height="34.7"/>
<rect x="189.25" y="182.33" style="fill:#C0C0C0;" width="117.44" height="16.667"/>
<rect x="255.67" y="182.33" style="fill:#758F9B;" width="51.02" height="16.667"/>
<g>
	<circle style="fill:#E6E18A;" cx="206.38" cy="73.8" r="10.333"/>
	<circle style="fill:#E6E18A;" cx="235.33" cy="48.833" r="10.333"/>
</g>
<g>
	<circle style="fill:#97CC52;" cx="288.36" cy="63.47" r="10.333"/>
	<circle style="fill:#97CC52;" cx="306.69" cy="28.17" r="10.333"/>
</g>
<g>
	<circle style="fill:#E6E18A;" cx="202.33" cy="28.17" r="10.333"/>
	<circle style="fill:#E6E18A;" cx="256" cy="89" r="10.333"/>
</g>
<path style="fill:#97CC52;" d="M256,78.667c-0.113,0-0.222,0.013-0.333,0.017v20.633c0.112,0.004,0.221,0.017,0.333,0.017
	c5.707,0,10.333-4.626,10.333-10.333S261.707,78.667,256,78.667z"/>
<g>
</g>
<g>
</g>
<g>
</g>
<g>
</g>
<g>
</g>
<g>
</g>
<g>
</g>
<g>
</g>
<g>
</g>
<g>
</g>
<g>
</g>
<g>
</g>
<g>
</g>
<g>
</g>
<g>
</g>
</svg>
