<svg id="Capa_1" enable-background="new 0 0 512 512" height="512" viewBox="0 0 512 512" width="512" xmlns="http://www.w3.org/2000/svg"><path d="m488 448-208-15v-117.887c0-11.772 6.464-22.594 16.829-28.175l87.171-46.938 87.171 46.938c10.365 5.582 16.829 16.403 16.829 28.175z" fill="#6f6571"/><path d="m343.074 249.274h64v30.726h-64z" fill="#e3aa75"/><path d="m343.074 249.274c9.81 4.301 20.621 6.726 32 6.726s22.19-2.425 32-6.726v-25.274h-64z" fill="#d29b6e"/><path d="m386.858 280h-23.567l-4.217 64h32z" fill="#8bb3ea"/><path d="m375.074 280-32-32s-28.171 7.043-11.825 47.561c1.826 4.526 7.354 6.322 11.539 3.811z" fill="#5d5360"/><path d="m375.074 280 32-32s28.171 7.043 11.825 47.561c-1.826 4.526-7.354 6.322-11.539 3.811z" fill="#5d5360"/><path d="m368.042 239.292c-35.346 0-58.708-27.945-58.708-63.292v-64h122.666v64c0 32.568-24.326 59.454-55.799 63.479-2.685.344-5.381-.187-8.159-.187z" fill="#f5b97d"/><path d="m320 176v-64h-16v64c0 35.346 28.654 64 64 64 2.715 0 5.574-.193 8.2-.522-31.562-3.944-56.2-30.847-56.2-63.478z" fill="#e3aa75"/><circle cx="72" cy="104" fill="#6f6571" r="48"/><path d="m207.732 168c0-48.601-31.131-88-79.732-88-23.746 0-45.296 9.405-61.126 24.694 0 0-6.207 32.451-6.207 57.306 0 40 18.732 70 67.333 70s79.732-24 79.732-64z" fill="#5d5360"/><path d="m96 136c-10.747-6.691-22.227-16.314-29.126-31.306-16.558 16.002-26.874 38.461-26.874 63.306 0 39.785 38.986 63.72 87.227 63.976z" fill="#4b3f4e"/><path d="m152 280h-55.333c-35.346 0-64 28.654-64 64v104h159.333v-128c0-22.091-17.909-40-40-40z" fill="#c3ddff"/><path d="m96 280h-8c-35.346 0-64 28.654-64 64v104h16v-104c0-26.51 21.49-48 48-48h8z" fill="#a4ccff"/><path d="m120 312c-17.673 0-32-14.327-32-32v-10.662l64 6.875v3.787c0 17.673-14.327 32-32 32z" fill="#b57f5f"/><path d="m88 269.338c11.722 6.744 25.266 10.662 39.732 10.662 8.46 0 16.608-1.342 24.268-3.788v-36.212h-64z" fill="#9f6e50"/><path d="m224 429.5h-136.5c-8.837 0-16-7.163-16-16v-69.5l8.5-16h144c8.837 0 16 7.163 16 16v80z" fill="#6f6571"/><path d="m80 328c-8.836 0-16 7.163-16 16v80c0 8.837 7.163 16 16 16h144c8.836 0 16-7.164 16-16h-136c-13.255 0-24-10.745-24-24z" fill="#5d5360"/><path d="m392 64h-40c-29 0-48 17.909-48 40 0 8.836 7.164 16 16 16h80c8.73 0 16.154 6.987 16.002 15.716v16.287c0 8.835 7.162 15.998 15.998 15.998s16-7.164 16-16v-16.984-15.017c0-30.928-25.072-56-56-56z" fill="#9f6e50"/><path d="m95.732 136c25.432 18.034 61.77 23.88 81.649 25.769 8.172.777 14.351 7.702 14.351 15.911v22.32c0 32.521-24.256 59.377-55.664 63.462-2.728.355-5.597.08-8.422.08-35.346 0-59.646-28.696-59.646-64.042 0-16.908 11.996-45.915 11.996-45.915s1.941-2.354 2.969-3.489z" fill="#cd916e"/><path d="m80 200v-46.412c-10.297 11.369-16 26.239-16 41.579v4.833c0 35.346 28.654 64 64 64 2.715 0 5.441-.21 8.068-.538-31.562-3.945-56.068-30.831-56.068-63.462z" fill="#b57f5f"/><circle cx="152" cy="384" fill="#857e87" r="16"/><path d="m504 456h-496c-4.422 0-8-3.582-8-8s3.578-8 8-8h496c4.422 0 8 3.582 8 8s-3.578 8-8 8z" fill="#ecbd83"/><path d="m432 432.25h-138.5c-8.837 0-16-7.163-16-16v-72.25l10.5-16h144c8.837 0 16 7.163 16 16v80z" fill="#dad8db"/><path d="m288 328c-8.836 0-16 7.163-16 16v80c0 8.837 7.163 16 16 16h144c8.836 0 16-7.164 16-16h-136c-13.255 0-24-10.745-24-24z" fill="#c8c5c9"/><circle cx="360" cy="384" fill="#fff" r="16"/><path d="m135.734 235.25c-6.867 0-13.539-1.367-19.281-3.957-4.031-1.813-5.828-6.547-4.016-10.578 1.82-4.023 6.547-5.828 10.578-4.008 7.406 3.328 18.023 3.332 25.438-.004 4.016-1.816 8.758-.016 10.578 4.016 1.813 4.031.016 8.766-4.016 10.578-5.757 2.586-12.421 3.953-19.281 3.953z" fill="#fff"/><circle cx="112" cy="188" fill="#4b3f4e" r="8"/><circle cx="160" cy="188" fill="#4b3f4e" r="8"/><path d="m360 211.25c-6.859 0-13.523-1.367-19.281-3.953-4.031-1.813-5.828-6.547-4.016-10.578 1.82-4.023 6.555-5.813 10.578-4.016 7.406 3.336 18.031 3.336 25.438 0 4.023-1.809 8.758-.012 10.578 4.016 1.813 4.031.016 8.766-4.016 10.578-5.758 2.586-12.422 3.953-19.281 3.953z" fill="#b67f5f"/><circle cx="336" cy="164" fill="#64505a" r="8"/><circle cx="384" cy="164" fill="#64505a" r="8"/><path d="m320 96c0-17.673 14.327-32 32-32h-24c-22.091 0-40 17.909-40 40 0 8.836 7.164 16 16 16h16z" fill="#785353"/></svg>